
      <svg data-logo="logo" xmlns="http://www.w3.org/2000/svg" viewBox="0 0 358 43">
        <g id="logogram" transform="translate(0, 1) rotate(0) "><path d="M39.3285 32.987C43.1874 29.5411 45.5538 24.8908 45.5538 19.7738C45.5538 9.15126 35.3562 0.539978 22.7769 0.539978C10.1976 0.539978 0 9.15126 0 19.7738C0 30.3963 10.1976 39.0076 22.7769 39.0076C26.3456 39.0076 29.7226 38.3146 32.7295 37.0791C36.2616 39.2593 40.5891 40.8264 45.3684 40.4959C42.8435 39.8541 40.6717 37.2542 39.3285 32.987Z" fill="#B6EFA2"/><path d="M39.48 19.7738C39.48 27.6009 32.0018 33.9461 22.7769 33.9461C13.5521 33.9461 6.07385 27.6009 6.07385 19.7738C6.07385 11.9466 13.5521 5.6015 22.7769 5.6015C32.0018 5.6015 39.48 11.9466 39.48 19.7738Z" fill="#88E169"/><path d="M33.4061 19.7738C33.4061 24.8056 28.6473 28.8846 22.7769 28.8846C16.9065 28.8846 12.1477 24.8056 12.1477 19.7738C12.1477 14.742 16.9065 10.6631 22.7769 10.6631C28.6473 10.6631 33.4061 14.742 33.4061 19.7738Z" fill="#55AE36"/></g>
        <g id="logotype" transform="translate(50, 7)"><path fill="#111111" d="M24.68 29L14.44 29L4.68 1.48L14.12 1.48L19.64 19.88L19.80 19.88L25.36 1.48L34.40 1.48L24.68 29ZM44.80 7.40Q50.36 7.40 53.54 10.22Q56.72 13.04 56.72 18.44L56.72 18.44Q56.72 23.84 53.54 26.66Q50.36 29.48 44.80 29.48L44.80 29.48Q39.24 29.48 36.08 26.68Q32.92 23.88 32.92 18.44L32.92 18.44Q32.92 13 36.08 10.20Q39.24 7.40 44.80 7.40L44.80 7.40ZM44.80 12.80Q40.88 12.80 40.88 17.32L40.88 17.32L40.88 19.60Q40.88 24.08 44.80 24.08L44.80 24.08Q48.76 24.08 48.76 19.60L48.76 19.60L48.76 17.32Q48.76 12.80 44.80 12.80L44.80 12.80ZM69.88 7.40Q75.08 7.40 78.30 9.62Q81.52 11.84 81.52 16.40L81.52 16.40L73.80 16.40Q73.80 12.80 69.88 12.80L69.88 12.80Q65.96 12.80 65.96 17.32L65.96 17.32L65.96 19.60Q65.96 24.08 70.04 24.08L70.04 24.08Q74.12 24.08 74.12 20.40L74.12 20.40L81.52 20.40Q81.52 25 78.30 27.24Q75.08 29.48 69.88 29.48L69.88 29.48Q64.32 29.48 61.16 26.68Q58 23.88 58 18.44L58 18.44Q58 13 61.16 10.20Q64.32 7.40 69.88 7.40L69.88 7.40ZM94.48 7.40Q99.32 7.40 102.36 9.02Q105.40 10.64 105.40 14.28L105.40 14.28L105.40 22.52Q105.40 23.20 105.72 23.64Q106.04 24.08 106.68 24.08L106.68 24.08L108.12 24.08L108.12 28.68Q108.00 28.76 107.50 28.94Q107.00 29.12 106.08 29.30Q105.16 29.48 103.96 29.48L103.96 29.48Q101.64 29.48 100.14 28.78Q98.64 28.08 98.08 26.84L98.08 26.84Q96.56 28.04 94.68 28.76Q92.80 29.48 90.28 29.48L90.28 29.48Q82.84 29.48 82.84 23.56L82.84 23.56Q82.84 20.48 84.50 18.86Q86.16 17.24 89.28 16.64Q92.40 16.04 97.44 16.04L97.44 16.04L97.44 15Q97.44 13.76 96.58 13.12Q95.72 12.48 94.36 12.48L94.36 12.48Q93.12 12.48 92.22 12.92Q91.32 13.36 91.32 14.32L91.32 14.32L91.32 14.48L83.48 14.48Q83.44 14.28 83.44 13.92L83.44 13.92Q83.44 10.92 86.30 9.16Q89.16 7.40 94.48 7.40L94.48 7.40ZM97.44 19.80Q94.04 19.80 92.42 20.54Q90.80 21.28 90.80 22.52L90.80 22.52Q90.80 24.52 93.52 24.52L93.52 24.52Q95.08 24.52 96.26 23.68Q97.44 22.84 97.44 21.60L97.44 21.60L97.44 19.80ZM117.36 29L109.40 29L109.40 0L117.36 0L117.36 29ZM148.80 29L139.96 29L139.96 18.56L130.24 18.56L130.24 29L121.40 29L121.40 1.48L130.24 1.48L130.24 11.52L139.96 11.52L139.96 1.48L148.80 1.48L148.80 29ZM163.48 7.40Q169.28 7.40 172.34 10.12Q175.40 12.84 175.40 18.44L175.40 18.44L175.40 19.80L159.56 19.80Q159.56 22.08 160.58 23.24Q161.60 24.40 163.80 24.40L163.80 24.40Q165.80 24.40 166.74 23.56Q167.68 22.72 167.68 21.32L167.68 21.32L175.40 21.32Q175.40 25.16 172.48 27.32Q169.56 29.48 163.96 29.48L163.96 29.48Q158.08 29.48 154.84 26.74Q151.60 24 151.60 18.44L151.60 18.44Q151.60 13 154.76 10.20Q157.92 7.40 163.48 7.40L163.48 7.40ZM163.80 12.48Q160.04 12.48 159.60 16.04L159.60 16.04L167.36 16.04Q167.36 14.40 166.42 13.44Q165.48 12.48 163.80 12.48L163.80 12.48ZM188.08 7.40Q192.92 7.40 195.96 9.02Q199.00 10.64 199.00 14.28L199.00 14.28L199.00 22.52Q199.00 23.20 199.32 23.64Q199.64 24.08 200.28 24.08L200.28 24.08L201.72 24.08L201.72 28.68Q201.60 28.76 201.10 28.94Q200.60 29.12 199.68 29.30Q198.76 29.48 197.56 29.48L197.56 29.48Q195.24 29.48 193.74 28.78Q192.24 28.08 191.68 26.84L191.68 26.84Q190.16 28.04 188.28 28.76Q186.40 29.48 183.88 29.48L183.88 29.48Q176.44 29.48 176.44 23.56L176.44 23.56Q176.44 20.48 178.10 18.86Q179.76 17.24 182.88 16.64Q186.00 16.04 191.04 16.04L191.04 16.04L191.04 15Q191.04 13.76 190.18 13.12Q189.32 12.48 187.96 12.48L187.96 12.48Q186.72 12.48 185.82 12.92Q184.92 13.36 184.92 14.32L184.92 14.32L184.92 14.48L177.08 14.48Q177.04 14.28 177.04 13.92L177.04 13.92Q177.04 10.92 179.90 9.16Q182.76 7.40 188.08 7.40L188.08 7.40ZM191.04 19.80Q187.64 19.80 186.02 20.54Q184.40 21.28 184.40 22.52L184.40 22.52Q184.40 24.52 187.12 24.52L187.12 24.52Q188.68 24.52 189.86 23.68Q191.04 22.84 191.04 21.60L191.04 21.60L191.04 19.80ZM210.96 29L203.00 29L203.00 0L210.96 0L210.96 29ZM224.04 7.88L228.52 7.88L228.52 13.28L224.04 13.28L224.04 21.32Q224.04 22.76 224.52 23.42Q225.00 24.08 226.28 24.08L226.28 24.08L228.52 24.08L228.52 28.76Q227.56 29.08 226.04 29.28Q224.52 29.48 223.40 29.48L223.40 29.48Q219.88 29.48 217.98 28.20Q216.08 26.92 216.08 23.84L216.08 23.84L216.08 13.28L213.12 13.28L213.12 7.88L216.40 7.88L218.12 1.48L224.04 1.48L224.04 7.88ZM238.56 10.08Q239.84 8.80 241.56 8.10Q243.28 7.40 245.16 7.40L245.16 7.40Q248.84 7.40 250.68 9.44Q252.52 11.48 252.52 15.32L252.52 15.32L252.52 29L244.56 29L244.56 16.28Q244.56 14.92 243.86 14.10Q243.16 13.28 241.88 13.28L241.88 13.28Q240.40 13.28 239.48 14.24Q238.56 15.20 238.56 16.60L238.56 16.60L238.56 29L230.60 29L230.60 0L238.56 0L238.56 10.08ZM295.76 29L286.40 29L285.24 25.12L275.60 25.12L274.44 29L265.40 29L275.44 1.48L285.72 1.48L295.76 29ZM280.36 9.16L277.44 18.96L283.40 18.96L280.52 9.16L280.36 9.16ZM306.72 29L297.88 29L297.88 1.48L306.72 1.48L306.72 29Z"/></g>
        
      </svg>
    